<svg width="30" height="30" viewBox="0 0 30 30" fill="none" xmlns="http://www.w3.org/2000/svg">
<g clip-path="url(#clip0_462_6718)">
<path d="M30 9.59425C30 14.784 4.98166 20.5122 3.08725 20.5122C2.02514 20.5122 0.820094 20.2674 0.820094 19.2883C0.820094 18.9611 1.19769 18.4883 1.86029 17.9182L1.85956 17.9186L0.103378 14.7982C-0.134416 14.3758 0.0541136 13.8406 0.504114 13.6604L0.805928 13.5395C1.35294 13.3205 1.96858 13.3532 2.48931 13.6288L5.6775 15.3167C6.91882 14.5804 8.32696 13.8095 9.81113 13.0505L3.59813 9.01969C3.10661 8.70077 3.11186 7.97949 3.60799 7.66783L4.11622 7.34851C4.96211 6.81709 5.99044 6.66013 6.95632 6.91488L17.2921 9.64116C20.5148 8.36204 23.4284 7.489 25.153 7.489C25.6136 7.489 26.0749 7.50121 26.5201 7.53302L23.3987 8.94209L23.324 9.99199L28.1422 7.77714C29.2971 8.05258 30 8.56665 30 9.59425ZM17.4261 18.5528L21.2814 22.9324C21.5163 23.1993 21.899 23.2796 22.2214 23.1298L22.7377 22.8898C23.6793 22.4521 24.2338 21.4598 24.1132 20.4286L23.6306 16.3018C23.6007 16.0465 23.3416 15.8848 23.0991 15.9702L17.5938 17.9095C17.3258 18.004 17.2383 18.3395 17.4261 18.5528Z" fill="#0056A4"/>
</g>
<defs>
<clipPath id="clip0_462_6718">
<rect width="30" height="30" fill="white"/>
</clipPath>
</defs>
</svg>
