<svg width="16" height="10" viewBox="0 0 16 10" fill="none" xmlns="http://www.w3.org/2000/svg">
<path d="M8.05816 9.33197C8.43917 9.31927 8.80235 9.16585 9.0788 8.90057L15.5218 2.70335C15.923 2.31441 16.0878 1.73922 15.9546 1.19443C15.8212 0.649661 15.41 0.217813 14.8756 0.0619913C14.3412 -0.0940662 13.7649 0.0492968 13.3637 0.438228C10.3665 3.31506 5.63347 3.31506 2.63626 0.438228C2.23508 0.0492945 1.65878 -0.0940662 1.12438 0.0619913C0.589978 0.217825 0.178839 0.649644 0.0453636 1.19443C-0.0878557 1.73921 0.0770415 2.31438 0.478227 2.70335L6.92121 8.90057C7.22671 9.19408 7.63679 9.3497 8.05816 9.33197Z" fill="#2361A9"/>
</svg>
