<svg width="34" height="35" viewBox="0 0 34 35" fill="none" xmlns="http://www.w3.org/2000/svg">
<path d="M17 0C7.90199 0 0.5 7.78126 0.5 17.3454C0.5 26.9096 7.90199 34.6909 17 34.6909C26.098 34.6909 33.5 26.9096 33.5 17.3454C33.5 7.78126 26.098 0 17 0ZM17.1587 8.00558C18.2883 8.00558 19.3926 8.35772 20.3318 9.01747C21.2711 9.67722 22.0031 10.6149 22.4354 11.7121C22.8677 12.8092 22.9808 14.0164 22.7604 15.1811C22.5401 16.3458 21.9961 17.4157 21.1973 18.2554C20.3985 19.0951 19.3808 19.6669 18.2729 19.8986C17.165 20.1303 16.0166 20.0114 14.9729 19.5569C13.9293 19.1025 13.0373 18.3329 12.4097 17.3455C11.7821 16.3581 11.4471 15.1973 11.4471 14.0098C11.4471 12.4174 12.0489 10.8902 13.12 9.76417C14.1911 8.63817 15.6439 8.00558 17.1587 8.00558ZM17 32.0223C15.0743 32.0232 13.1694 31.6041 11.4056 30.7917C9.64174 29.9793 8.05737 28.7912 6.75255 27.3024C7.4538 23.4847 13.7524 22.6825 17 22.6825C20.2476 22.6825 26.5462 23.4847 27.2474 27.3015C25.9428 28.7906 24.3585 29.979 22.5946 30.7916C20.8308 31.6041 18.9258 32.0232 17 32.0223Z" fill="#2361A9"/>
</svg>
