<svg width="24" height="24" viewBox="0 0 24 24" fill="none" xmlns="http://www.w3.org/2000/svg">
<path d="M19.6467 4.5H19.6406L17.9977 4.51547L6 4.5H5.9925L4.27031 4.51547C3.13734 4.51781 2.25 5.44078 2.25 6.61875V17.4127C2.25 18.5916 3.14062 19.5155 4.275 19.5155H4.28203L6.00281 19.5L17.9991 19.5155H18.007L19.6509 19.5C20.2079 19.4984 20.7415 19.2761 21.1349 18.8819C21.5283 18.4877 21.7495 17.9537 21.75 17.3967V6.60328C21.7494 6.04565 21.5276 5.51103 21.1333 5.11672C20.739 4.72241 20.2044 4.50062 19.6467 4.5ZM6.75 15C6.75 15.1989 6.67098 15.3897 6.53033 15.5303C6.38968 15.671 6.19891 15.75 6 15.75C5.80109 15.75 5.61032 15.671 5.46967 15.5303C5.32902 15.3897 5.25 15.1989 5.25 15V9C5.25 8.80109 5.32902 8.61032 5.46967 8.46967C5.61032 8.32902 5.80109 8.25 6 8.25C6.19891 8.25 6.38968 8.32902 6.53033 8.46967C6.67098 8.61032 6.75 8.80109 6.75 9V15ZM9.75 16.5C9.75 16.6989 9.67098 16.8897 9.53033 17.0303C9.38968 17.171 9.19891 17.25 9 17.25C8.80109 17.25 8.61032 17.171 8.46967 17.0303C8.32902 16.8897 8.25 16.6989 8.25 16.5V7.5C8.25 7.30109 8.32902 7.11032 8.46967 6.96967C8.61032 6.82902 8.80109 6.75 9 6.75C9.19891 6.75 9.38968 6.82902 9.53033 6.96967C9.67098 7.11032 9.75 7.30109 9.75 7.5V16.5ZM12.75 15.75C12.75 15.9489 12.671 16.1397 12.5303 16.2803C12.3897 16.421 12.1989 16.5 12 16.5C11.8011 16.5 11.6103 16.421 11.4697 16.2803C11.329 16.1397 11.25 15.9489 11.25 15.75V8.25C11.25 8.05109 11.329 7.86032 11.4697 7.71967C11.6103 7.57902 11.8011 7.5 12 7.5C12.1989 7.5 12.3897 7.57902 12.5303 7.71967C12.671 7.86032 12.75 8.05109 12.75 8.25V15.75ZM15.75 16.5C15.75 16.6989 15.671 16.8897 15.5303 17.0303C15.3897 17.171 15.1989 17.25 15 17.25C14.8011 17.25 14.6103 17.171 14.4697 17.0303C14.329 16.8897 14.25 16.6989 14.25 16.5V7.5C14.25 7.30109 14.329 7.11032 14.4697 6.96967C14.6103 6.82902 14.8011 6.75 15 6.75C15.1989 6.75 15.3897 6.82902 15.5303 6.96967C15.671 7.11032 15.75 7.30109 15.75 7.5V16.5ZM18.75 15C18.75 15.1989 18.671 15.3897 18.5303 15.5303C18.3897 15.671 18.1989 15.75 18 15.75C17.8011 15.75 17.6103 15.671 17.4697 15.5303C17.329 15.3897 17.25 15.1989 17.25 15V9C17.25 8.80109 17.329 8.61032 17.4697 8.46967C17.6103 8.32902 17.8011 8.25 18 8.25C18.1989 8.25 18.3897 8.32902 18.5303 8.46967C18.671 8.61032 18.75 8.80109 18.75 9V15Z" fill="#2361A9"/>
</svg>
