<svg width="22" height="22" viewBox="0 0 22 22" fill="none" xmlns="http://www.w3.org/2000/svg">
<path d="M19.2307 4.125H14.4375V2.0625C14.4375 1.88016 14.3651 1.7053 14.2361 1.57636C14.1072 1.44743 13.9323 1.375 13.75 1.375H8.25C8.06766 1.375 7.8928 1.44743 7.76386 1.57636C7.63493 1.7053 7.5625 1.88016 7.5625 2.0625V4.125H2.76934L2.75 5.84375H4.16797L5.03121 19.3359C5.05306 19.6848 5.20699 20.0123 5.46169 20.2518C5.7164 20.4913 6.05275 20.6247 6.40234 20.625H15.5977C15.947 20.625 16.2833 20.4919 16.5382 20.2529C16.793 20.0138 16.9473 19.6868 16.9696 19.3381L17.832 5.84375H19.25L19.2307 4.125ZM7.5625 17.875L7.17578 6.875H8.59375L8.98047 17.875H7.5625ZM11.6875 17.875H10.3125V6.875H11.6875V17.875ZM12.7188 4.125H9.28125V2.92188C9.28125 2.87629 9.29936 2.83257 9.33159 2.80034C9.36382 2.76811 9.40754 2.75 9.45312 2.75H12.5469C12.5925 2.75 12.6362 2.76811 12.6684 2.80034C12.7006 2.83257 12.7188 2.87629 12.7188 2.92188V4.125ZM14.4375 17.875H13.0195L13.4062 6.875H14.8242L14.4375 17.875Z" fill="#2361A9"/>
</svg>
