<svg width="20" height="23" viewBox="0 0 20 23" fill="none" xmlns="http://www.w3.org/2000/svg">
<path fill-rule="evenodd" clip-rule="evenodd" d="M8.05311 2.28877C8.0023 2.28862 7.95196 2.29866 7.90499 2.3183C7.85801 2.33794 7.81533 2.3668 7.7794 2.40322C7.74347 2.43965 7.715 2.48291 7.69563 2.53053C7.67625 2.57814 7.66635 2.62917 7.6665 2.68068L7.6665 2.68299V3.86563H12.3332V2.68299L12.3332 2.68068C12.3333 2.62917 12.3234 2.57814 12.304 2.53053C12.2847 2.48291 12.2562 2.43964 12.2203 2.40322C12.1843 2.3668 12.1417 2.33794 12.0947 2.3183C12.0477 2.29866 11.9974 2.28862 11.9466 2.28877L11.9443 2.28878H8.05539L8.05311 2.28877ZM3.82774 5.44249L4.74832 20.3735C4.7485 20.3764 4.74866 20.3793 4.74881 20.3822C4.77571 20.9128 5.12323 21.2111 5.52761 21.2111H14.4721C14.8724 21.2111 15.2184 20.9194 15.2513 20.3745L16.1719 5.44249H3.82774ZM16.9927 3.86563H13.8887V2.68416C13.8893 2.42519 13.8395 2.16864 13.7421 1.92922C13.6445 1.68946 13.5011 1.47162 13.3202 1.28822C13.1393 1.10482 12.9244 0.959491 12.6879 0.860589C12.4517 0.761853 12.1987 0.711332 11.9433 0.711919H8.05639C7.80097 0.711332 7.54794 0.761853 7.31181 0.860589C7.07528 0.959492 6.86038 1.10482 6.67946 1.28822C6.49854 1.47161 6.35518 1.68946 6.25761 1.92922C6.16021 2.16859 6.11037 2.42508 6.11095 2.684V3.86563H3.00702C3.00273 3.8656 2.99844 3.8656 2.99414 3.86563H1.44428C1.01473 3.86563 0.666504 4.21863 0.666504 4.65406C0.666504 5.0895 1.01473 5.44249 1.44428 5.44249H2.26915L3.19555 20.4678C3.26312 21.7573 4.22248 22.7879 5.52761 22.7879H14.4721C15.7895 22.7879 16.7269 21.7482 16.8039 20.4709C16.8039 20.4708 16.8039 20.4708 16.8039 20.4707L17.7305 5.44249H18.5554C18.9849 5.44249 19.3332 5.0895 19.3332 4.65406C19.3332 4.21863 18.9849 3.86563 18.5554 3.86563H17.0055C17.0012 3.8656 16.9969 3.8656 16.9927 3.86563ZM6.47208 7.01985C6.90136 7.00431 7.26179 7.34448 7.27712 7.77964L7.66601 18.8176C7.68134 19.2528 7.34577 19.6182 6.91649 19.6337C6.48721 19.6492 6.12678 19.3091 6.11144 18.8739L5.72255 7.83592C5.70722 7.40076 6.0428 7.03539 6.47208 7.01985ZM13.5276 7.01985C13.9569 7.03539 14.2925 7.40076 14.2771 7.83592L13.8882 18.8739C13.8729 19.3091 13.5125 19.6492 13.0832 19.6337C12.6539 19.6182 12.3183 19.2528 12.3337 18.8176L12.7226 7.77964C12.7379 7.34448 13.0983 7.00431 13.5276 7.01985ZM9.99984 7.01935C10.4294 7.01935 10.7776 7.37234 10.7776 7.80778V18.8458C10.7776 19.2812 10.4294 19.6342 9.99984 19.6342C9.57028 19.6342 9.22206 19.2812 9.22206 18.8458V7.80778C9.22206 7.37234 9.57028 7.01935 9.99984 7.01935Z" fill="#2361A9"/>
</svg>
