<svg width="30" height="30" viewBox="0 0 30 30" fill="none" xmlns="http://www.w3.org/2000/svg">
<path d="M25.8897 14.449C25.7852 14.1672 25.5347 14.0004 25.273 13.8876L23.6422 13.2727V7.19456C23.6422 6.94537 23.5387 6.70638 23.3545 6.53018C23.1703 6.35397 22.9205 6.25498 22.6601 6.25498H18.928V4.75166C18.928 4.55231 18.8453 4.36112 18.6979 4.22016C18.5506 4.07919 18.3507 4 18.1423 4H11.8568C11.6484 4 11.4486 4.07919 11.3013 4.22016C11.1539 4.36112 11.0711 4.55231 11.0711 4.75166V6.25498H7.3391C7.07863 6.25498 6.82883 6.35397 6.64465 6.53018C6.46046 6.70638 6.35699 6.94537 6.35699 7.19456V13.2764L4.73258 13.89C4.47084 14.0027 4.21304 14.1719 4.10795 14.4537C4.00287 14.7356 3.95278 15.0085 4.05885 15.3463L6.56569 22.4016H6.61774C8.29323 22.4016 9.7605 21.5837 10.8069 20.343C11.8539 21.5837 13.3202 22.3217 14.9957 22.3217C16.6711 22.3217 18.1384 21.5814 19.1849 20.3406C20.2318 21.5814 21.6981 22.4016 23.3736 22.4016H23.4256L25.9423 15.3468C26.0484 15.0649 25.9948 14.7314 25.8897 14.449ZM14.9996 10.0133L7.92837 12.6831V7.94622C7.92837 7.89638 7.94907 7.84858 7.9859 7.81334C8.02274 7.7781 8.0727 7.75831 8.12479 7.75831H21.8744C21.9265 7.75831 21.9764 7.7781 22.0133 7.81334C22.0501 7.84858 22.0708 7.89638 22.0708 7.94622V12.6798L14.9996 10.0133Z" fill="#2361A9"/>
<path d="M19.3808 21.9929C16.815 23.6963 13.1763 23.6959 10.6105 21.9929C10.6105 21.9929 8.36934 24.9526 5.96316 24.9526L6.61774 24.9995C8.08404 24.9995 9.49779 24.4485 10.8069 23.7973C12.1012 24.4393 13.5378 24.7744 14.9957 24.7744C16.4535 24.7744 17.8901 24.4393 19.1844 23.7973C20.4935 24.4489 21.9073 25 23.3736 25L24.0282 24.953C21.6883 24.9526 19.3808 21.9929 19.3808 21.9929Z" fill="#2361A9"/>
</svg>
