<svg width="24" height="24" viewBox="0 0 24 24" fill="none" xmlns="http://www.w3.org/2000/svg">
<path d="M1 20.1818C1 20.3988 1.08278 20.6069 1.23013 20.7604C1.37748 20.9138 1.57733 21 1.78571 21H22.2143C22.4227 21 22.6225 20.9138 22.7699 20.7604C22.9172 20.6069 23 20.3988 23 20.1818V10.2614H1V20.1818ZM4.24107 13.125C4.24107 13.0165 4.28246 12.9124 4.35614 12.8357C4.42981 12.759 4.52974 12.7159 4.63393 12.7159H9.15179C9.25598 12.7159 9.3559 12.759 9.42958 12.8357C9.50325 12.9124 9.54464 13.0165 9.54464 13.125V16.3977C9.54464 16.5062 9.50325 16.6103 9.42958 16.687C9.3559 16.7637 9.25598 16.8068 9.15179 16.8068H4.63393C4.52974 16.8068 4.42981 16.7637 4.35614 16.687C4.28246 16.6103 4.24107 16.5062 4.24107 16.3977V13.125Z" fill="#2361A9"/>
<path d="M22.2143 3H1.78571C1.57733 3 1.37748 3.0862 1.23013 3.23964C1.08278 3.39308 1 3.60119 1 3.81818V7.19318H23V3.81818C23 3.60119 22.9172 3.39308 22.7699 3.23964C22.6225 3.0862 22.4227 3 22.2143 3Z" fill="#2361A9"/>
</svg>
