<svg width="24" height="24" viewBox="0 0 24 24" fill="none" xmlns="http://www.w3.org/2000/svg">
<path d="M13.125 11.25C13.0255 11.25 12.9302 11.2105 12.8598 11.1402C12.7895 11.0698 12.75 10.9745 12.75 10.875V2.25H10.0664C9.97886 2.08788 9.87689 1.93397 9.76172 1.79016C9.22125 1.11937 8.41828 0.75 7.5 0.75C5.73375 0.75 4.5 2.13797 4.5 4.125V10.875C4.5 12.0469 5.45344 12.75 6.375 12.75C6.62198 12.7527 6.86701 12.706 7.09571 12.6128C7.32442 12.5195 7.53219 12.3815 7.70684 12.2068C7.88149 12.0322 8.0195 11.8244 8.11277 11.5957C8.20604 11.367 8.2527 11.122 8.25 10.875V3.75H6.75V10.875C6.75163 10.9247 6.74305 10.9742 6.72478 11.0204C6.70651 11.0666 6.67895 11.1086 6.64379 11.1438C6.60864 11.1789 6.56665 11.2065 6.52041 11.2248C6.47418 11.243 6.42469 11.2516 6.375 11.25C6.27047 11.25 6 11.1825 6 10.875V4.125C6 3.21844 6.39422 2.25 7.5 2.25C8.89172 2.25 9 3.66328 9 4.09594V10.5998C9 11.4178 8.74359 12.1575 8.27766 12.6839C7.80469 13.2188 7.14703 13.5 6.375 13.5C5.60297 13.5 4.94531 13.2188 4.47234 12.6839C4.00641 12.1575 3.75 11.4178 3.75 10.5998V6.75H2.25V10.5998C2.25 13.0144 3.80578 14.8013 6 14.9841V21.9375C6 22.0867 6.05926 22.2298 6.16475 22.3352C6.27024 22.4407 6.41332 22.5 6.5625 22.5H21.1875C21.3367 22.5 21.4798 22.4407 21.5852 22.3352C21.6907 22.2298 21.75 22.0867 21.75 21.9375V11.25H13.125Z" fill="#2361A9"/>
<path d="M14.4375 9.75H21.2958C21.3143 9.75002 21.3324 9.74454 21.3478 9.73427C21.3633 9.724 21.3753 9.70939 21.3824 9.69229C21.3895 9.67519 21.3914 9.65636 21.3878 9.63818C21.3843 9.62001 21.3754 9.60329 21.3623 9.59016L14.4098 2.63766C14.3967 2.6246 14.38 2.61572 14.3618 2.61215C14.3436 2.60858 14.3248 2.61048 14.3077 2.6176C14.2906 2.62472 14.276 2.63675 14.2657 2.65216C14.2555 2.66758 14.25 2.68569 14.25 2.70422V9.5625C14.25 9.61223 14.2698 9.65992 14.3049 9.69508C14.3401 9.73025 14.3878 9.75 14.4375 9.75Z" fill="#2361A9"/>
</svg>
