<svg width="16" height="13" viewBox="0 0 16 13" fill="none" xmlns="http://www.w3.org/2000/svg">
<path d="M14.5271 3.95101e-05C14.1605 -0.0028808 13.8113 0.156214 13.5728 0.434528L5.71415 9.34566L2.14124 5.7318C1.91028 5.49196 1.59299 5.35446 1.25994 5.35039C0.927032 5.3462 0.606309 5.47572 0.369481 5.70973C0.132808 5.94387 -0.000389201 6.26319 8.54272e-07 6.59613C0.000381776 6.92904 0.134209 7.24801 0.371529 7.48162L4.88122 12.0427C5.1236 12.2879 5.45691 12.4214 5.80149 12.4117C6.1461 12.4018 6.47124 12.2494 6.6993 11.9909L15.4391 2.08056C15.6555 1.84211 15.771 1.52912 15.7614 1.20726C15.7519 0.88539 15.6179 0.579889 15.3877 0.354762C15.1575 0.129515 14.849 0.00241236 14.527 7.02337e-06L14.5271 3.95101e-05Z" fill="white"/>
</svg>
