<svg width="12" height="7" viewBox="0 0 12 7" fill="none" xmlns="http://www.w3.org/2000/svg">
<path d="M6.04362 6.99898C6.32937 6.98946 6.60176 6.87438 6.8091 6.67543L11.6413 2.02751C11.9422 1.73581 12.0659 1.30442 11.966 0.895825C11.8659 0.487246 11.5575 0.16336 11.1567 0.0464934C10.7559 -0.0705496 10.3237 0.0369726 10.0228 0.328671C7.7749 2.4863 4.2251 2.4863 1.9772 0.328671C1.67631 0.0369709 1.24409 -0.0705496 0.843287 0.0464934C0.442484 0.163368 0.134129 0.487233 0.0340227 0.895825C-0.0658918 1.3044 0.0577811 1.73579 0.35867 2.02751L5.19091 6.67543C5.42003 6.89556 5.7276 7.01227 6.04362 6.99898Z" fill="#2361A9"/>
</svg>
