<svg width="24" height="24" viewBox="0 0 24 24" fill="none" xmlns="http://www.w3.org/2000/svg">
<path fill-rule="evenodd" clip-rule="evenodd" d="M16.4084 2.25105C16.2379 2.09031 16.0067 2 15.7656 2C15.5245 2 15.2932 2.09031 15.1227 2.25105L3.98046 12.7566C3.86625 12.8643 3.78453 12.9988 3.7437 13.1461L2.53158 17.5215C2.45002 17.8159 2.54013 18.129 2.76834 18.3442C2.99655 18.5593 3.32865 18.6443 3.64091 18.5674L8.28143 17.4245C8.43771 17.386 8.58029 17.309 8.69451 17.2013L19.8368 6.69572C20.1918 6.36099 20.1918 5.81827 19.8368 5.48354L16.4084 2.25105Z" fill="#2361A9"/>
<path d="M2.90909 20.2857C2.40701 20.2857 2 20.6695 2 21.1429C2 21.6162 2.40701 22 2.90909 22H21.0909C21.593 22 22 21.6162 22 21.1429C22 20.6695 21.593 20.2857 21.0909 20.2857H2.90909Z" fill="#2361A9"/>
</svg>
