<svg width="28" height="28" viewBox="0 0 28 28" fill="none" xmlns="http://www.w3.org/2000/svg">
<path fill-rule="evenodd" clip-rule="evenodd" d="M17.6598 4.04803C17.4957 3.88394 17.2732 3.79175 17.0411 3.79175C16.809 3.79175 16.5865 3.88394 16.4224 4.04803L5.69794 14.7725C5.58801 14.8824 5.50935 15.0196 5.47006 15.1701L4.3034 19.6366C4.22489 19.9371 4.31162 20.2568 4.53127 20.4764C4.75093 20.6961 5.07057 20.7828 5.37113 20.7043L9.83762 19.5376C9.98804 19.4983 10.1253 19.4197 10.2352 19.3098L20.9597 8.5853C21.3014 8.24359 21.3014 7.68957 20.9597 7.34786L17.6598 4.04803ZM7.10326 15.842L17.0411 5.90419L19.1035 7.96658L9.16565 17.9044L6.37409 18.6336L7.10326 15.842Z" fill="#2361A9"/>
<path d="M4.66675 22.4584C4.1835 22.4584 3.79175 22.8502 3.79175 23.3334C3.79175 23.8167 4.1835 24.2084 4.66675 24.2084H22.1667C22.65 24.2084 23.0417 23.8167 23.0417 23.3334C23.0417 22.8502 22.65 22.4584 22.1667 22.4584H4.66675Z" fill="#2361A9"/>
</svg>
