<svg width="10" height="10" viewBox="0 0 10 10" fill="none" xmlns="http://www.w3.org/2000/svg">
<path fill-rule="evenodd" clip-rule="evenodd" d="M0 1.50509C0.506518 0.998568 0.998568 0.506518 1.50509 0C2.66278 1.1577 3.8351 2.33001 4.99278 3.48769C6.16501 2.32999 7.32279 1.15767 8.49491 0C8.98696 0.506518 9.49348 0.998568 10 1.50509C8.82777 2.66278 7.66998 3.8351 6.49786 4.99278C7.67009 6.16501 8.82788 7.32279 10 8.49491C9.49348 8.98696 8.98698 9.49348 8.49491 10C7.32268 8.82777 6.1649 7.66998 4.99278 6.49786C3.83508 7.67009 2.66276 8.82788 1.50509 10C0.998568 9.49348 0.506518 8.98699 0 8.49491C1.1577 7.32268 2.33001 6.1649 3.48769 4.99278C2.32999 3.83508 1.15767 2.66276 0 1.50509Z" fill="#D80505"/>
</svg>
