<svg width="80" height="80" viewBox="0 0 80 80" fill="none" xmlns="http://www.w3.org/2000/svg">
<circle cx="40" cy="40" r="40" fill="#FBE6E6"/>
<path d="M47.3125 47.9688V41.0625H37.6836C37.4018 41.0625 37.1316 40.9506 36.9323 40.7513C36.733 40.552 36.6211 40.2818 36.6211 40C36.6211 39.7182 36.733 39.448 36.9323 39.2487C37.1316 39.0494 37.4018 38.9375 37.6836 38.9375H47.3125V32.0312C47.3114 31.0453 46.9193 30.1 46.2221 29.4029C45.525 28.7057 44.5797 28.3136 43.5938 28.3125H30.8438C29.8578 28.3136 28.9125 28.7057 28.2154 29.4029C27.5182 30.1 27.1261 31.0453 27.125 32.0312V47.9688C27.1261 48.9547 27.5182 49.9 28.2154 50.5971C28.9125 51.2943 29.8578 51.6864 30.8438 51.6875H43.5938C44.5797 51.6864 45.525 51.2943 46.2221 50.5971C46.9193 49.9 47.3114 48.9547 47.3125 47.9688Z" fill="#D80505"/>
<path d="M53.2472 41.0625L49.7489 44.5614C49.5581 44.7623 49.4533 45.0298 49.4568 45.3069C49.4604 45.5839 49.572 45.8486 49.7679 46.0446C49.9639 46.2405 50.2286 46.3521 50.5056 46.3557C50.7827 46.3592 51.0502 46.2544 51.2511 46.0636L56.5636 40.7511C56.7627 40.5518 56.8745 40.2817 56.8745 40C56.8745 39.7183 56.7627 39.4482 56.5636 39.2489L51.2511 33.9364C51.0502 33.7456 50.7827 33.6408 50.5056 33.6443C50.2286 33.6479 49.9639 33.7595 49.7679 33.9554C49.572 34.1514 49.4604 34.4161 49.4568 34.6931C49.4533 34.9702 49.5581 35.2377 49.7489 35.4386L53.2472 38.9375H47.3125V41.0625H53.2472Z" fill="#D80505"/>
</svg>
