<svg width="66" height="85" viewBox="0 0 66 85" fill="none" xmlns="http://www.w3.org/2000/svg">
<path fill-rule="evenodd" clip-rule="evenodd" d="M65.3063 46.8914C62.9249 61.0919 51.9933 73.6436 32.8183 84.1979C14.9014 74.3117 4.09641 62.3474 0.70243 48.6327C-0.315559 44.5274 0.0332792 23.4985 0.167784 15.4551L33.0001 0.237549L65.8105 15.4418C66.0528 27.2462 66.2152 41.4583 65.3055 46.8889L65.3063 46.8914Z" fill="#2361A9"/>
<path d="M33 36.625C31.136 36.625 29.625 38.136 29.625 40C29.625 41.864 31.136 43.375 33 43.375C34.864 43.375 36.375 41.864 36.375 40C36.375 38.136 34.864 36.625 33 36.625Z" fill="white"/>
<path fill-rule="evenodd" clip-rule="evenodd" d="M33 30.25C29.0733 30.25 25.542 31.8271 22.9974 33.78C21.7235 34.7578 20.6782 35.8437 19.9447 36.9005C19.2253 37.9372 18.75 39.0273 18.75 40C18.75 40.9727 19.2253 42.0628 19.9447 43.0995C20.6782 44.1563 21.7235 45.2422 22.9974 46.22C25.542 48.1729 29.0733 49.75 33 49.75C36.9267 49.75 40.458 48.1729 43.0026 46.22C44.2765 45.2422 45.3218 44.1563 46.0553 43.0995C46.7747 42.0628 47.25 40.9727 47.25 40C47.25 39.0273 46.7747 37.9372 46.0553 36.9005C45.3218 35.8437 44.2765 34.7578 43.0026 33.78C40.458 31.8271 36.9267 30.25 33 30.25ZM27.375 40C27.375 36.8934 29.8934 34.375 33 34.375C36.1066 34.375 38.625 36.8934 38.625 40C38.625 43.1066 36.1066 45.625 33 45.625C29.8934 45.625 27.375 43.1066 27.375 40Z" fill="white"/>
</svg>
