<svg width="24" height="37" viewBox="0 0 24 37" fill="none" xmlns="http://www.w3.org/2000/svg">
<path d="M12 15.7692C13.3255 15.7692 14.4 14.5925 14.4 13.141C14.4 11.6895 13.3255 10.5128 12 10.5128C10.6745 10.5128 9.6 11.6895 9.6 13.141C9.6 14.5925 10.6745 15.7692 12 15.7692Z" fill="#2361A9"/>
<path d="M12 0C5.3835 0 0 5.6383 0 12.5661C0 15.8653 1.37325 20.2527 4.0815 25.6068C6.2565 29.9056 8.77275 33.7928 10.0815 35.727C10.3026 36.0575 10.5918 36.3263 10.9255 36.5115C11.2592 36.6968 11.6281 36.7933 12.0023 36.7933C12.3764 36.7933 12.7453 36.6968 13.079 36.5115C13.4127 36.3263 13.7019 36.0575 13.923 35.727C15.2295 33.7928 17.748 29.9056 19.923 25.6068C22.6268 20.2543 24 15.8669 24 12.5661C24 5.6383 18.6165 0 12 0ZM12 18.3974C11.0507 18.3974 10.1226 18.0891 9.33326 17.5115C8.54391 16.9339 7.92868 16.113 7.56538 15.1525C7.20208 14.192 7.10702 13.1351 7.29223 12.1155C7.47744 11.0959 7.9346 10.1593 8.60589 9.42414C9.27718 8.68902 10.1325 8.1884 11.0636 7.98558C11.9947 7.78276 12.9598 7.88686 13.8369 8.2847C14.714 8.68254 15.4636 9.35627 15.9911 10.2207C16.5185 11.0851 16.8 12.1014 16.8 13.141C16.7986 14.5346 16.2925 15.8707 15.3926 16.8561C14.4927 17.8416 13.2726 18.3958 12 18.3974Z" fill="#2361A9"/>
</svg>
