<svg width="28" height="28" viewBox="0 0 28 28" fill="none" xmlns="http://www.w3.org/2000/svg">
<path d="M5.6875 8.75C5.0818 8.75 4.48969 8.57039 3.98607 8.23388C3.48244 7.89737 3.08991 7.41907 2.85812 6.85947C2.62633 6.29987 2.56568 5.6841 2.68385 5.09004C2.80201 4.49597 3.09369 3.95029 3.52199 3.52199C3.95029 3.09369 4.49597 2.80201 5.09004 2.68385C5.6841 2.56568 6.29987 2.62633 6.85947 2.85812C7.41907 3.08991 7.89737 3.48244 8.23388 3.98607C8.57039 4.48969 8.75 5.0818 8.75 5.6875C8.74913 6.49946 8.4262 7.27792 7.85206 7.85206C7.27792 8.4262 6.49946 8.74913 5.6875 8.75Z" fill="#2361A9"/>
<path d="M14 8.75C13.3943 8.75 12.8022 8.57039 12.2986 8.23388C11.7949 7.89737 11.4024 7.41907 11.1706 6.85947C10.9388 6.29987 10.8782 5.6841 10.9963 5.09004C11.1145 4.49597 11.4062 3.95029 11.8345 3.52199C12.2628 3.09369 12.8085 2.80201 13.4025 2.68385C13.9966 2.56568 14.6124 2.62633 15.172 2.85812C15.7316 3.08991 16.2099 3.48244 16.5464 3.98607C16.8829 4.48969 17.0625 5.0818 17.0625 5.6875C17.0616 6.49946 16.7387 7.27792 16.1646 7.85206C15.5904 8.4262 14.812 8.74913 14 8.75Z" fill="#2361A9"/>
<path d="M22.3125 8.75C21.7068 8.75 21.1147 8.57039 20.6111 8.23388C20.1074 7.89737 19.7149 7.41907 19.4831 6.85947C19.2513 6.29987 19.1907 5.6841 19.3088 5.09004C19.427 4.49597 19.7187 3.95029 20.147 3.52199C20.5753 3.09369 21.121 2.80201 21.715 2.68385C22.3091 2.56568 22.9249 2.62633 23.4845 2.85812C24.0441 3.08991 24.5224 3.48244 24.8589 3.98607C25.1954 4.48969 25.375 5.0818 25.375 5.6875C25.3741 6.49946 25.0512 7.27792 24.4771 7.85206C23.9029 8.4262 23.1245 8.74913 22.3125 8.75Z" fill="#2361A9"/>
<path d="M5.6875 17.0625C5.0818 17.0625 4.48969 16.8829 3.98607 16.5464C3.48244 16.2099 3.08991 15.7316 2.85812 15.172C2.62633 14.6124 2.56568 13.9966 2.68385 13.4025C2.80201 12.8085 3.09369 12.2628 3.52199 11.8345C3.95029 11.4062 4.49597 11.1145 5.09004 10.9963C5.6841 10.8782 6.29987 10.9388 6.85947 11.1706C7.41907 11.4024 7.89737 11.7949 8.23388 12.2986C8.57039 12.8022 8.75 13.3943 8.75 14C8.74913 14.812 8.4262 15.5904 7.85206 16.1646C7.27792 16.7387 6.49946 17.0616 5.6875 17.0625Z" fill="#2361A9"/>
<path d="M14 17.0625C13.3943 17.0625 12.8022 16.8829 12.2986 16.5464C11.7949 16.2099 11.4024 15.7316 11.1706 15.172C10.9388 14.6124 10.8782 13.9966 10.9963 13.4025C11.1145 12.8085 11.4062 12.2628 11.8345 11.8345C12.2628 11.4062 12.8085 11.1145 13.4025 10.9963C13.9966 10.8782 14.6124 10.9388 15.172 11.1706C15.7316 11.4024 16.2099 11.7949 16.5464 12.2986C16.8829 12.8022 17.0625 13.3943 17.0625 14C17.0616 14.812 16.7387 15.5904 16.1646 16.1646C15.5904 16.7387 14.812 17.0616 14 17.0625Z" fill="#2361A9"/>
<path d="M22.3125 17.0625C21.7068 17.0625 21.1147 16.8829 20.6111 16.5464C20.1074 16.2099 19.7149 15.7316 19.4831 15.172C19.2513 14.6124 19.1907 13.9966 19.3088 13.4025C19.427 12.8085 19.7187 12.2628 20.147 11.8345C20.5753 11.4062 21.121 11.1145 21.715 10.9963C22.3091 10.8782 22.9249 10.9388 23.4845 11.1706C24.0441 11.4024 24.5224 11.7949 24.8589 12.2986C25.1954 12.8022 25.375 13.3943 25.375 14C25.3741 14.812 25.0512 15.5904 24.4771 16.1646C23.9029 16.7387 23.1245 17.0616 22.3125 17.0625Z" fill="#2361A9"/>
<path d="M5.6875 25.375C5.0818 25.375 4.48969 25.1954 3.98607 24.8589C3.48244 24.5224 3.08991 24.0441 2.85812 23.4845C2.62633 22.9249 2.56568 22.3091 2.68385 21.715C2.80201 21.121 3.09369 20.5753 3.52199 20.147C3.95029 19.7187 4.49597 19.427 5.09004 19.3088C5.6841 19.1907 6.29987 19.2513 6.85947 19.4831C7.41907 19.7149 7.89737 20.1074 8.23388 20.6111C8.57039 21.1147 8.75 21.7068 8.75 22.3125C8.74913 23.1245 8.4262 23.9029 7.85206 24.4771C7.27792 25.0512 6.49946 25.3741 5.6875 25.375Z" fill="#2361A9"/>
<path d="M14 25.375C13.3943 25.375 12.8022 25.1954 12.2986 24.8589C11.7949 24.5224 11.4024 24.0441 11.1706 23.4845C10.9388 22.9249 10.8782 22.3091 10.9963 21.715C11.1145 21.121 11.4062 20.5753 11.8345 20.147C12.2628 19.7187 12.8085 19.427 13.4025 19.3088C13.9966 19.1907 14.6124 19.2513 15.172 19.4831C15.7316 19.7149 16.2099 20.1074 16.5464 20.6111C16.8829 21.1147 17.0625 21.7068 17.0625 22.3125C17.0616 23.1245 16.7387 23.9029 16.1646 24.4771C15.5904 25.0512 14.812 25.3741 14 25.375Z" fill="#2361A9"/>
<path d="M22.3125 25.375C21.7068 25.375 21.1147 25.1954 20.6111 24.8589C20.1074 24.5224 19.7149 24.0441 19.4831 23.4845C19.2513 22.9249 19.1907 22.3091 19.3088 21.715C19.427 21.121 19.7187 20.5753 20.147 20.147C20.5753 19.7187 21.121 19.427 21.715 19.3088C22.3091 19.1907 22.9249 19.2513 23.4845 19.4831C24.0441 19.7149 24.5224 20.1074 24.8589 20.6111C25.1954 21.1147 25.375 21.7068 25.375 22.3125C25.3741 23.1245 25.0512 23.9029 24.4771 24.4771C23.9029 25.0512 23.1245 25.3741 22.3125 25.375Z" fill="#2361A9"/>
</svg>
