<svg width="22" height="22" viewBox="0 0 22 22" fill="none" xmlns="http://www.w3.org/2000/svg">
<path d="M11 2.40625C6.26141 2.40625 2.40625 6.26141 2.40625 11C2.40625 15.7386 6.26141 19.5938 11 19.5938C15.7386 19.5938 19.5938 15.7386 19.5938 11C19.5938 6.26141 15.7386 2.40625 11 2.40625ZM11 5.92969C11.221 5.92969 11.437 5.99521 11.6207 6.11797C11.8044 6.24073 11.9476 6.41521 12.0321 6.61935C12.1167 6.82349 12.1388 7.04811 12.0957 7.26483C12.0526 7.48154 11.9462 7.6806 11.79 7.83685C11.6337 7.99309 11.4347 8.09949 11.218 8.1426C11.0012 8.1857 10.7766 8.16358 10.5725 8.07902C10.3683 7.99446 10.1939 7.85127 10.0711 7.66755C9.94833 7.48383 9.88281 7.26783 9.88281 7.04688C9.88281 6.75058 10.0005 6.46642 10.21 6.2569C10.4195 6.04739 10.7037 5.92969 11 5.92969ZM13.75 15.6406H8.59375V14.2656H10.4844V10.4844H9.10938V9.10938H11.8594V14.2656H13.75V15.6406Z" fill="#2361A9"/>
</svg>
