<svg width="150" height="38" viewBox="0 0 150 38" fill="none" xmlns="http://www.w3.org/2000/svg">
<g clip-path="url(#clip0_167_4074)">
<path d="M25.4491 37.3883L32.6872 8.21464L34.627 38H42.7482L40.2728 0.014565H27.5916L21.3813 25.547L15.1566 0.014565H2.47543L0 38H8.12114L10.061 8.21464L17.299 37.3883H25.4491ZM133.977 14.4048H138.87L140.564 11.2733L138.885 8.20008H133.977V14.4048ZM119.979 14.4048H124.264V26.7122C124.264 33.179 125.885 38 132.978 38C135.541 38 137.669 37.3446 138.87 36.8639V29.9601C134.629 30.7612 132.558 31.0234 132.558 25.343V0H124.264V8.21464H120.63L119.979 14.4048ZM81.0088 25.5615C81.5733 32.7275 92.6621 31.4749 97.4537 29.9601L98.6408 36.1503C87.4217 40.4615 72.4533 37.6504 72.4533 22.969C72.4533 3.4082 100.248 1.28172 100.248 21.9494C100.248 23.5079 100.074 24.8915 99.9581 25.547H81.0088V25.5615ZM91.8369 19.3131C91.8369 11.2296 80.9943 11.1131 81.0667 19.3131H91.8369ZM109.585 16.0797C109.585 12.3511 116.475 13.56 118.56 14.4048L119.197 8.21464C112.219 6.04446 101.391 7.66117 101.406 16.9099C101.261 26.0276 114.608 24.775 114.608 29.1154C114.608 33.6888 104.156 31.3438 101.883 29.9601L100.696 36.1648C108.456 39.6167 123.207 38.8448 122.816 28.4891C122.686 18.4247 109.585 20.2016 109.585 16.0797Z" fill="#0056A4"/>
<path d="M51.7817 25.5616C52.3463 32.7276 63.4351 31.475 68.2267 29.9602L69.4137 36.1504C58.1947 40.4616 43.2263 37.6505 43.2263 22.9691C43.2263 3.4083 71.0206 1.28181 71.0206 21.9495C71.0206 23.508 70.8469 24.8916 70.7311 25.5471H51.7817V25.5616ZM62.6099 19.3132C62.6099 11.2297 51.7673 11.1132 51.8396 19.3132H62.6099Z" fill="#E40137"/>
<path d="M143.3 0L149.467 11.2733L143.3 22.6194H137.133L143.3 11.2733L137.133 0H143.3Z" fill="#E40137"/>
</g>
<defs>
<clipPath id="clip0_167_4074">
<rect width="149.467" height="38" fill="white"/>
</clipPath>
</defs>
</svg>
