<svg width="7" height="12" viewBox="0 0 7 12" fill="none" xmlns="http://www.w3.org/2000/svg">
<path d="M0.00102403 5.95638C0.0105451 5.67063 0.125615 5.39824 0.32457 5.1909L4.97249 0.358664C5.26419 0.0577754 5.69558 -0.0658818 6.10418 0.0340156C6.51275 0.134092 6.83664 0.442469 6.95351 0.843281C7.07055 1.24408 6.96303 1.67629 6.67133 1.97719L2.81008 6L6.67133 10.0228C6.96303 10.3237 7.07055 10.7559 6.95351 11.1567C6.83663 11.5575 6.51277 11.8659 6.10418 11.966C5.6956 12.0659 5.26421 11.9422 4.97249 11.6413L0.32457 6.80909C0.104439 6.57997 -0.0122721 6.2724 0.00102403 5.95638Z" fill="#2361A9"/>
</svg>
