<svg width="30" height="30" viewBox="0 0 30 30" fill="none" xmlns="http://www.w3.org/2000/svg">
<path fill-rule="evenodd" clip-rule="evenodd" d="M6.09375 6.5625C5.72079 6.5625 5.3631 6.71066 5.09938 6.97438C4.83566 7.2381 4.6875 7.59579 4.6875 7.96875V22.0312C4.6875 22.4042 4.83566 22.7619 5.09938 23.0256C5.3631 23.2893 5.72079 23.4375 6.09375 23.4375H15.4688C15.8417 23.4375 16.1994 23.2893 16.4631 23.0256C16.7268 22.7619 16.875 22.4042 16.875 22.0312V19.6875C16.875 19.1697 17.2947 18.75 17.8125 18.75C18.3303 18.75 18.75 19.1697 18.75 19.6875V22.0312C18.75 22.9015 18.4043 23.7361 17.7889 24.3514C17.1736 24.9668 16.339 25.3125 15.4688 25.3125H6.09375C5.22351 25.3125 4.38891 24.9668 3.77356 24.3514C3.1582 23.7361 2.8125 22.9015 2.8125 22.0312V7.96875C2.8125 7.09851 3.1582 6.26391 3.77356 5.64856C4.38891 5.0332 5.22351 4.6875 6.09375 4.6875H15C15.8803 4.6875 16.783 5.0354 17.4698 5.57354C18.1531 6.10887 18.75 6.94051 18.75 7.96875V10.3125C18.75 10.8303 18.3303 11.25 17.8125 11.25C17.2947 11.25 16.875 10.8303 16.875 10.3125V7.96875C16.875 7.70266 16.7129 7.36242 16.3134 7.04946C15.9176 6.7393 15.414 6.5625 15 6.5625H6.09375ZM20.8996 9.64959C21.2657 9.28347 21.8593 9.28347 22.2254 9.64959L26.9129 14.3371C27.279 14.7032 27.279 15.2968 26.9129 15.6629L22.2254 20.3504C21.8593 20.7165 21.2657 20.7165 20.8996 20.3504C20.5335 19.9843 20.5335 19.3907 20.8996 19.0246L23.9867 15.9375H10.3125C9.79473 15.9375 9.375 15.5178 9.375 15C9.375 14.4822 9.79473 14.0625 10.3125 14.0625H23.9867L20.8996 10.9754C20.5335 10.6093 20.5335 10.0157 20.8996 9.64959Z" fill="#2361A9"/>
</svg>
