<svg width="24" height="24" viewBox="0 0 24 24" fill="none" xmlns="http://www.w3.org/2000/svg">
<path d="M12 1C5.93466 1 1 5.93466 1 12C1 18.0653 5.93466 23 12 23C18.0653 23 23 18.0653 23 12C23 5.93466 18.0653 1 12 1ZM12.1058 6.07692C12.8589 6.07692 13.595 6.30024 14.2212 6.71864C14.8474 7.13703 15.3354 7.73171 15.6236 8.42747C15.9118 9.12324 15.9872 9.88884 15.8403 10.6275C15.6934 11.3661 15.3307 12.0445 14.7982 12.5771C14.2657 13.1096 13.5872 13.4722 12.8486 13.6191C12.11 13.7661 11.3444 13.6907 10.6486 13.4025C9.95286 13.1143 9.35818 12.6262 8.93979 12.0001C8.52139 11.3739 8.29808 10.6377 8.29808 9.88462C8.29808 8.87475 8.69924 7.90625 9.41332 7.19217C10.1274 6.47809 11.0959 6.07692 12.1058 6.07692ZM12 21.3077C10.7162 21.3082 9.44625 21.0425 8.27037 20.5273C7.09449 20.0121 6.03825 19.2586 5.16837 18.3144C5.63587 15.8934 9.8349 15.3846 12 15.3846C14.1651 15.3846 18.3641 15.8934 18.8316 18.3139C17.9619 19.2582 16.9056 20.0119 15.7298 20.5272C14.5539 21.0425 13.2839 21.3083 12 21.3077Z" fill="#2361A9"/>
</svg>
