<svg width="7" height="12" viewBox="0 0 7 12" fill="none" xmlns="http://www.w3.org/2000/svg">
<path d="M6.99898 5.95638C6.98945 5.67063 6.87438 5.39824 6.67543 5.1909L2.02751 0.358664C1.73581 0.0577754 1.30442 -0.0658818 0.895824 0.0340156C0.487245 0.134092 0.16336 0.442469 0.046493 0.843281C-0.0705501 1.24408 0.0369721 1.67629 0.32867 1.97719L4.18992 6L0.328671 10.0228C0.0369708 10.3237 -0.0705497 10.7559 0.0464934 11.1567C0.163368 11.5575 0.487233 11.8659 0.895825 11.966C1.3044 12.0659 1.73579 11.9422 2.02751 11.6413L6.67543 6.80909C6.89556 6.57997 7.01227 6.2724 6.99898 5.95638Z" fill="#2361A9"/>
</svg>
