<svg width="24" height="26" viewBox="0 0 24 26" fill="none" xmlns="http://www.w3.org/2000/svg">
<path d="M20.8 3.28799L19.3333 2.53711L17.8667 3.28799L16.4 2.53711L14.9333 3.28799L13.4667 2.53711L12 3.28799L10.5333 2.53711L9.06667 3.28799L6.86667 2.53711V14.5536H17.1333V20.9338C17.1333 22.3853 18.649 23.5619 20.0667 23.5619H20.6167C22.0343 23.5619 23 22.3853 23 20.9338V2.53711L20.8 3.28799ZM12.7563 12.2986L12.7333 10.7968H20.0438L20.0667 12.2986H12.7563ZM9.82292 8.54419L9.8 7.04242H20.0438L20.0667 8.54419H9.82292Z" fill="#2361A9"/>
<path d="M15.6667 20.9338V16.053H1V17.5548C1 19.9271 1.26492 20.9159 1.66275 21.6673C2.33788 22.9424 3.56025 23.5619 5.4 23.5619H17.1333C17.1333 23.5619 15.6667 22.6233 15.6667 20.9338Z" fill="#2361A9"/>
</svg>
