<svg width="40" height="40" viewBox="0 0 40 40" fill="none" xmlns="http://www.w3.org/2000/svg">
<g clip-path="url(#clip0_462_5186)">
<path d="M38.5842 23.2829C38.5715 23.3532 38.5627 23.4242 38.5494 23.4945L38.481 23.0916C38.5183 23.1543 38.5494 23.2196 38.5842 23.2829C38.7907 22.1592 38.899 21.0088 38.899 19.8591C38.899 17.3094 38.3999 14.8357 37.4136 12.5071C36.4621 10.2577 35.1008 8.23755 33.3651 6.50313C31.632 4.76871 29.6106 3.4074 27.3624 2.45593C25.0344 1.4709 22.5608 0.971732 20.0111 0.971732C18.8094 0.971732 17.6058 1.08449 16.4346 1.30937C16.432 1.31 16.4289 1.31 16.4257 1.31063C16.4916 1.34547 16.5581 1.37651 16.6227 1.41262L16.2255 1.35054C16.292 1.33787 16.3592 1.32394 16.4257 1.31063C14.8186 0.456093 13.0113 0 11.1819 0C8.19511 0 5.38697 1.16304 3.275 3.27564C1.16367 5.3876 0 8.19574 0 11.1825C0 13.0835 0.489033 14.9523 1.40692 16.6037C1.41896 16.5353 1.42719 16.4662 1.44049 16.3978L1.50891 16.7937C1.47343 16.7316 1.44239 16.667 1.40692 16.6037C1.22068 17.6736 1.1225 18.767 1.1225 19.8591C1.1225 22.4094 1.62166 24.8824 2.60797 27.2117C3.55816 29.4617 4.9201 31.4806 6.65389 33.215C8.38958 34.9494 10.4084 36.3126 12.6591 37.2615C14.9871 38.2485 17.4614 38.7483 20.0111 38.7483C21.1209 38.7483 22.2333 38.6469 23.319 38.4544C23.2557 38.4189 23.1911 38.3866 23.1265 38.3492L23.53 38.4201C23.4603 38.4334 23.39 38.4417 23.319 38.4544C24.992 39.4007 26.8861 39.9037 28.82 39.9037C31.8062 39.9037 34.613 38.7426 36.725 36.6293C38.8376 34.5186 40 31.7099 40 28.7231C40 26.8157 39.5084 24.9407 38.5842 23.2829ZM20.0865 31.4267C13.3762 31.4267 10.3742 28.1276 10.3742 25.6552C10.3742 24.387 11.3105 23.4983 12.6008 23.4983C15.4723 23.4983 14.7286 27.6215 20.0865 27.6215C22.8294 27.6215 24.344 26.1322 24.344 24.6081C24.344 23.6915 23.8917 22.6754 22.0857 22.2301L16.1172 20.7402C11.3105 19.5347 10.4382 16.9363 10.4382 14.4936C10.4382 9.42212 15.2132 7.51793 19.6975 7.51793C23.8283 7.51793 28.6978 9.80093 28.6978 12.8435C28.6978 14.1471 27.5689 14.9054 26.2792 14.9054C23.8283 14.9054 24.2794 11.5132 19.3428 11.5132C16.8932 11.5132 15.5363 12.6224 15.5363 14.2098C15.5363 15.7941 17.4709 16.3003 19.1508 16.6829L23.5686 17.6635C28.4076 18.7416 29.6346 21.5669 29.6346 24.228C29.6346 28.3494 26.4711 31.4267 20.0865 31.4267ZM23.1265 38.3492C23.1911 38.3866 23.2557 38.4189 23.319 38.4544C23.39 38.4417 23.4603 38.4334 23.53 38.4201L23.1265 38.3492ZM38.5494 23.4945C38.5627 23.4242 38.5715 23.3532 38.5842 23.2829C38.5494 23.2196 38.5183 23.1543 38.481 23.0916L38.5494 23.4945ZM1.44049 16.3978C1.42719 16.4662 1.41896 16.5353 1.40692 16.6037C1.44239 16.667 1.47343 16.7316 1.50891 16.7937L1.44049 16.3978ZM16.6227 1.41262C16.5581 1.37651 16.4916 1.34547 16.4257 1.31063C16.3592 1.32394 16.292 1.33787 16.2255 1.35054L16.6227 1.41262Z" fill="#0056A4"/>
</g>
<defs>
<clipPath id="clip0_462_5186">
<rect width="40" height="40" fill="white"/>
</clipPath>
</defs>
</svg>
