<svg width="24" height="24" viewBox="0 0 24 24" fill="none" xmlns="http://www.w3.org/2000/svg">
<path d="M20.8894 6.12128C20.9185 6.10398 20.9425 6.07922 20.9593 6.04945C20.976 6.01968 20.9848 5.98596 20.9848 5.95163C20.9848 5.9173 20.976 5.88358 20.9593 5.85381C20.9425 5.82405 20.9185 5.79928 20.8894 5.78198L13.5462 1.42464C13.0763 1.14649 12.5428 1 11.9998 1C11.4567 1 10.9232 1.14649 10.4534 1.42464L3.11154 5.78198C3.08251 5.79928 3.05843 5.82405 3.04169 5.85381C3.02495 5.88358 3.01614 5.9173 3.01614 5.95163C3.01614 5.98596 3.02495 6.01968 3.04169 6.04945C3.05843 6.07922 3.08251 6.10398 3.11154 6.12128L11.9038 11.4037C11.9334 11.4215 11.9671 11.4309 12.0014 11.4309C12.0358 11.4309 12.0695 11.4215 12.099 11.4037L20.8894 6.12128Z" fill="#2361A9"/>
<path d="M2.28847 7.45735C2.25914 7.44006 2.22586 7.43098 2.192 7.43104C2.15814 7.43109 2.12489 7.44028 2.09562 7.45767C2.06634 7.47506 2.04209 7.50003 2.0253 7.53007C2.00851 7.5601 1.99978 7.59413 2 7.62872V16.1671C2.00073 16.5786 2.10691 16.9827 2.30799 17.3392C2.50907 17.6958 2.79804 17.9924 3.14616 18.1995L10.9423 22.9737C10.9715 22.9909 11.0047 23 11.0384 23C11.0722 23 11.1053 22.991 11.1345 22.9737C11.1638 22.9565 11.188 22.9318 11.2049 22.9019C11.2218 22.8721 11.2307 22.8383 11.2308 22.8038V12.8974C11.2307 12.863 11.2218 12.8291 11.205 12.7993C11.1881 12.7695 11.1638 12.7447 11.1346 12.7275L2.28847 7.45735Z" fill="#2361A9"/>
<path d="M12.7692 12.9318V22.8013C12.7693 22.8358 12.7782 22.8696 12.7951 22.8995C12.812 22.9293 12.8362 22.9541 12.8655 22.9713C12.8947 22.9885 12.9279 22.9976 12.9616 22.9975C12.9953 22.9975 13.0285 22.9885 13.0577 22.9712L20.8534 18.197C21.2012 17.9902 21.4901 17.694 21.6912 17.3379C21.8924 16.9818 21.9988 16.5782 22 16.1671V7.62872C21.9999 7.5943 21.9909 7.56052 21.974 7.53076C21.9571 7.501 21.9328 7.4763 21.9036 7.45914C21.8743 7.44199 21.8412 7.43297 21.8075 7.433C21.7738 7.43303 21.7407 7.44211 21.7115 7.45932L12.8654 12.7624C12.8363 12.7795 12.812 12.8042 12.7952 12.834C12.7783 12.8637 12.7694 12.8974 12.7692 12.9318Z" fill="#2361A9"/>
</svg>
