<svg width="24" height="24" viewBox="0 0 24 24" fill="none" xmlns="http://www.w3.org/2000/svg">
<path fill-rule="evenodd" clip-rule="evenodd" d="M5.99991 4.87503H20.2499V2.41503C20.2499 2.30405 20.2253 2.19446 20.1778 2.09415C20.1304 1.99384 20.0612 1.90531 19.9754 1.83496C19.8896 1.7646 19.7892 1.71417 19.6815 1.6873C19.5739 1.66042 19.4616 1.65778 19.3527 1.67956L2.19194 4.4999C2.19173 4.49993 2.19153 4.49997 2.19132 4.5C2.18475 4.50103 2.17823 4.5021 2.17174 4.50322L2.10274 4.51456C2.01032 4.53296 1.92253 4.56854 1.8438 4.61912C1.60329 4.76355 1.46851 5.02771 1.46851 5.4375V12.1641L1.47647 12.1606V20.25C1.47647 20.4489 1.55549 20.6397 1.69614 20.7803C1.83679 20.921 2.02756 21 2.22647 21H21.7265C21.9254 21 22.1161 20.921 22.2568 20.7803C22.3975 20.6397 22.4765 20.4489 22.4765 20.25V6.75C22.4765 6.55109 22.3975 6.36032 22.2568 6.21967C22.1161 6.07902 21.9254 6 21.7265 6H5.99991V4.87503ZM17.2499 15C16.9532 15 16.6632 14.912 16.4166 14.7472C16.1699 14.5824 15.9776 14.3481 15.8641 14.074C15.7506 13.7999 15.7209 13.4983 15.7787 13.2074C15.8366 12.9164 15.9795 12.6491 16.1892 12.4393C16.399 12.2296 16.6663 12.0867 16.9573 12.0288C17.2482 11.9709 17.5498 12.0006 17.8239 12.1142C18.098 12.2277 18.3323 12.42 18.4971 12.6666C18.6619 12.9133 18.7499 13.2033 18.7499 13.5C18.7499 13.8978 18.5919 14.2794 18.3106 14.5607C18.0293 14.842 17.6477 15 17.2499 15Z" fill="#2361A9"/>
</svg>
